<svg width="28" height="28" viewBox="0 0 28 28" fill="none" xmlns="http://www.w3.org/2000/svg"><rect width="28" height="28" rx="14" fill="url(#paint0_linear)"/><path d="M11.8613 13.9997C11.8613 12.8184 12.8187 11.8606 13.9999 11.8606C15.1812 11.8606 16.1391 12.8184 16.1391 13.9997C16.1391 15.1809 15.1812 16.1387 13.9999 16.1387C12.8187 16.1387 11.8613 15.1809 11.8613 13.9997ZM10.7049 13.9997C10.7049 15.8194 12.1801 17.2946 13.9999 17.2946C15.8198 17.2946 17.2949 15.8194 17.2949 13.9997C17.2949 12.1799 15.8198 10.7048 13.9999 10.7048C12.1801 10.7048 10.7049 12.1799 10.7049 13.9997ZM16.6554 10.5742C16.6553 10.7264 16.7004 10.8753 16.785 11.002C16.8695 11.1287 16.9897 11.2274 17.1304 11.2857C17.2711 11.3441 17.4259 11.3594 17.5753 11.3297C17.7247 11.3001 17.8619 11.2268 17.9697 11.1191C18.0774 11.0115 18.1508 10.8743 18.1806 10.725C18.2103 10.5756 18.1951 10.4208 18.1369 10.2801C18.0787 10.1394 17.98 10.0191 17.8534 9.9344C17.7269 9.84974 17.578 9.80452 17.4257 9.80446H17.4254C17.2212 9.80455 17.0255 9.88567 16.8811 10.03C16.7367 10.1743 16.6555 10.37 16.6554 10.5742ZM11.4075 19.2227C10.7819 19.1942 10.4418 19.09 10.2158 19.002C9.91625 18.8853 9.70249 18.7464 9.47775 18.522C9.253 18.2976 9.11388 18.084 8.99776 17.7844C8.90967 17.5586 8.80546 17.2184 8.77702 16.5928C8.74591 15.9165 8.7397 15.7133 8.7397 13.9997C8.7397 12.2862 8.74642 12.0836 8.77702 11.4066C8.80551 10.781 8.91049 10.4416 8.99776 10.215C9.11439 9.91544 9.25331 9.70169 9.47775 9.47695C9.70218 9.25221 9.91574 9.1131 10.2158 8.99698C10.4417 8.9089 10.7819 8.80469 11.4075 8.77625C12.0839 8.74514 12.2871 8.73893 13.9999 8.73893C15.7128 8.73893 15.9162 8.74566 16.5931 8.77625C17.2188 8.80474 17.5582 8.90972 17.7848 8.99698C18.0844 9.1131 18.2981 9.25252 18.5229 9.47695C18.7476 9.70138 18.8862 9.91544 19.0029 10.215C19.091 10.4409 19.1952 10.781 19.2236 11.4066C19.2547 12.0836 19.2609 12.2862 19.2609 13.9997C19.2609 15.7133 19.2547 15.9159 19.2236 16.5928C19.1951 17.2184 19.0904 17.5585 19.0029 17.7844C18.8862 18.084 18.7473 18.2978 18.5229 18.522C18.2984 18.7462 18.0844 18.8853 17.7848 19.002C17.5589 19.09 17.2188 19.1942 16.5931 19.2227C15.9167 19.2538 15.7136 19.26 13.9999 19.26C12.2863 19.26 12.0837 19.2538 11.4075 19.2227ZM11.3544 7.62187C10.6712 7.65298 10.2044 7.76129 9.7968 7.91991C9.37461 8.08371 9.01722 8.30347 8.66008 8.66003C8.30294 9.01659 8.08373 9.37454 7.91992 9.79671C7.7613 10.2046 7.65298 10.6711 7.62187 11.3542C7.59025 12.0384 7.58301 12.2571 7.58301 13.9997C7.58301 15.7422 7.59025 15.961 7.62187 16.6451C7.65298 17.3283 7.7613 17.7947 7.91992 18.2026C8.08373 18.6246 8.30299 18.9829 8.66008 19.3393C9.01716 19.6957 9.37461 19.9152 9.7968 20.0794C10.2052 20.2381 10.6712 20.3464 11.3544 20.3775C12.0389 20.4086 12.2573 20.4163 13.9999 20.4163C15.7426 20.4163 15.9613 20.4091 16.6455 20.3775C17.3287 20.3464 17.7952 20.2381 18.2031 20.0794C18.625 19.9152 18.9826 19.6959 19.3398 19.3393C19.6969 18.9828 19.9157 18.6246 20.0799 18.2026C20.2386 17.7947 20.3474 17.3282 20.378 16.6451C20.4091 15.9605 20.4163 15.7422 20.4163 13.9997C20.4163 12.2571 20.4091 12.0384 20.378 11.3542C20.3469 10.6711 20.2386 10.2043 20.0799 9.79671C19.9157 9.3748 19.6964 9.01716 19.3398 8.66003C18.9832 8.30291 18.625 8.08371 18.2036 7.91991C17.7952 7.76129 17.3286 7.65246 16.646 7.62187C15.9618 7.59076 15.7431 7.58301 14.0004 7.58301C12.2578 7.58301 12.0389 7.59025 11.3544 7.62187Z" fill="#fff"/><defs><linearGradient id="paint0_linear" x1=".875" y1="30.333" x2="25.375" y2="0" gradientUnits="userSpaceOnUse"><stop stop-color="#F7D472"/><stop offset=".297" stop-color="#F37B1D"/><stop offset=".557" stop-color="#D02873"/><stop offset=".797" stop-color="#922EBA"/><stop offset="1" stop-color="#4D58CF"/></linearGradient></defs></svg>