<svg width="18" height="18" viewBox="0 0 18 18" fill="none" xmlns="http://www.w3.org/2000/svg"><path d="M9.15891 11.5852C9.00138 11.7436 8.91309 11.958 8.9134 12.1813C8.9137 12.4047 9.00257 12.6189 9.16053 12.7768C9.31848 12.9348 9.53262 13.0236 9.756 13.0239C9.97938 13.0242 10.1938 12.936 10.3521 12.7784L13.5341 9.59644C13.6924 9.4382 13.7813 9.22359 13.7813 8.99982C13.7813 8.77604 13.6924 8.56143 13.5341 8.4032L10.3521 5.22125C10.1939 5.06301 9.9793 4.97412 9.75553 4.97412C9.53175 4.97412 9.31714 5.06301 9.15891 5.22125C9.00067 5.37948 8.91178 5.59409 8.91178 5.81787C8.91178 6.04164 9.00067 6.25625 9.15891 6.41448L10.9005 8.15609H1.6875C1.46372 8.15609 1.24911 8.24498 1.09088 8.40322C0.932645 8.56145 0.84375 8.77606 0.84375 8.99984C0.84375 9.22361 0.932645 9.43822 1.09088 9.59646C1.24911 9.75469 1.46372 9.84359 1.6875 9.84359H10.9005L9.15891 11.5852Z" fill="#fff"/><path d="M15.75 0.84375H7.875C7.50204 0.84375 7.14435 0.991908 6.88063 1.25563C6.61691 1.51935 6.46875 1.87704 6.46875 2.25V3.375C6.46875 3.59878 6.55764 3.81339 6.71588 3.97162C6.87411 4.12986 7.08872 4.21875 7.3125 4.21875C7.53628 4.21875 7.75089 4.12986 7.90912 3.97162C8.06736 3.81339 8.15625 3.59878 8.15625 3.375V2.53125H15.4688V15.4688H8.15625V14.625C8.15625 14.4012 8.06736 14.1866 7.90912 14.0284C7.75089 13.8701 7.53628 13.7812 7.3125 13.7812C7.08872 13.7812 6.87411 13.8701 6.71588 14.0284C6.55764 14.1866 6.46875 14.4012 6.46875 14.625V15.75C6.46875 16.123 6.61691 16.4806 6.88063 16.7444C7.14435 17.0081 7.50204 17.1562 7.875 17.1562H15.75C16.123 17.1562 16.4806 17.0081 16.7444 16.7444C17.0081 16.4806 17.1562 16.123 17.1562 15.75V2.25C17.1562 1.87704 17.0081 1.51935 16.7444 1.25563C16.4806 0.991908 16.123 0.84375 15.75 0.84375Z" fill="#fff"/></svg>