<svg width="18" height="14" viewBox="0 0 18 14" fill="none" xmlns="http://www.w3.org/2000/svg"><path fill-rule="evenodd" clip-rule="evenodd" d="M9 3.70589C8.19089 3.70589 7.39995 3.94738 6.7272 4.39983C6.05446 4.85229 5.53013 5.49535 5.2205 6.24775C4.91087 7.00015 4.82984 7.82811 4.98769 8.62686C5.14554 9.4256 5.53518 10.1593 6.1073 10.7351C6.67942 11.311 7.40833 11.7032 8.20189 11.8621C8.99545 12.0209 9.81801 11.9394 10.5655 11.6277C11.313 11.3161 11.952 10.7883 12.4015 10.1112C12.851 9.43402 13.0909 8.63793 13.0909 7.82353C13.0894 6.73193 12.6579 5.68551 11.891 4.91363C11.1242 4.14176 10.0845 3.70741 9 3.70589ZM9 10.7059C8.43363 10.7059 7.87998 10.5368 7.40905 10.2201C6.93813 9.90341 6.57108 9.45321 6.35434 8.92653C6.1376 8.39985 6.0809 7.8203 6.1914 7.26118C6.30189 6.70205 6.57461 6.18852 6.97509 5.78542C7.37558 5.38231 7.88583 5.10779 8.44132 4.99657C8.99681 4.88535 9.5726 4.94247 10.0959 5.16063C10.6191 5.37879 11.0664 5.74821 11.381 6.22221C11.6957 6.69621 11.8636 7.25346 11.8636 7.82353C11.8636 8.58798 11.5619 9.3211 11.0249 9.86165C10.4879 10.4022 9.75948 10.7059 9 10.7059ZM16.7727 2.47059H13.7479L12.4756 0.551804C12.364 0.382032 12.2123 0.242765 12.0341 0.146473C11.8559 0.0501809 11.6568 -0.000166484 11.4545 2.89406e-06H6.54545C6.34292 -0.00043916 6.14346 0.0497667 5.96495 0.146071C5.78645 0.242375 5.63449 0.381799 5.52273 0.551804L4.25046 2.47059H4.09091V2.05883C4.09091 1.73121 3.96161 1.417 3.73146 1.18533C3.5013 0.953672 3.18913 0.823532 2.86364 0.823532H2.45455C2.12905 0.823532 1.81688 0.953672 1.58673 1.18533C1.35657 1.417 1.22727 1.73121 1.22727 2.05883V2.47059C0.90178 2.47059 0.589611 2.60073 0.359453 2.83239C0.129294 3.06406 0 3.37826 0 3.70589V12.7647C0 13.0923 0.129294 13.4065 0.359453 13.6382C0.589611 13.8699 0.90178 14 1.22727 14H16.7727C17.0982 14 17.4104 13.8699 17.6405 13.6382C17.8707 13.4065 18 13.0923 18 12.7647V3.70589C18 3.37826 17.8707 3.06406 17.6405 2.83239C17.4104 2.60073 17.0982 2.47059 16.7727 2.47059ZM2.45455 2.05883H2.86364V2.47059H2.45455V2.05883ZM16.7727 12.7647H1.22727V3.70589H4.90909L6.54545 1.2353H11.4545L13.0909 3.70589H16.7727V12.7647ZM14.5227 6.17647C14.6441 6.17647 14.7627 6.14029 14.8637 6.07243C14.9646 6.00456 15.0432 5.90803 15.0896 5.79517C15.1361 5.68231 15.1483 5.5581 15.1246 5.43829C15.1009 5.31848 15.0425 5.20851 14.9566 5.12213C14.8708 5.03575 14.7615 4.97687 14.6425 4.95304C14.5234 4.92921 14.4 4.94148 14.2879 4.98823C14.1758 5.03498 14.0799 5.11415 14.0125 5.21572C13.9451 5.31729 13.9091 5.43667 13.9091 5.55883C13.9091 5.72264 13.9737 5.87969 14.0888 5.99552C14.2039 6.11135 14.36 6.17647 14.5227 6.17647Z" fill="#fff"/></svg>