<svg width="18" height="18" viewBox="0 0 18 18" fill="none" xmlns="http://www.w3.org/2000/svg"><path opacity=".64" d="M14.0252 12.8473L17.5944 16.4157L16.4152 17.5948L12.8469 14.0257C11.5191 15.09 9.86768 15.6689 8.16602 15.6665C4.02602 15.6665 0.666016 12.3065 0.666016 8.1665C0.666016 4.0265 4.02602 0.666504 8.16602 0.666504C12.306 0.666504 15.666 4.0265 15.666 8.1665C15.6684 9.86817 15.0895 11.5196 14.0252 12.8473ZM12.3535 12.229C13.4111 11.1414 14.0017 9.68353 13.9994 8.1665C13.9994 4.94317 11.3885 2.33317 8.16602 2.33317C4.94268 2.33317 2.33268 4.94317 2.33268 8.1665C2.33268 11.389 4.94268 13.9998 8.16602 13.9998C9.68304 14.0022 11.1409 13.4116 12.2285 12.354L12.3535 12.229Z" fill="#fff"/></svg>