<svg width="17" height="18" viewBox="0 0 17 18" fill="none" xmlns="http://www.w3.org/2000/svg"><path opacity=".64" d="M13.3592 12.7167L16.9283 16.2851L15.7492 17.4642L12.1808 13.8951C10.8531 14.9594 9.20167 15.5383 7.5 15.5359C3.36 15.5359 0 12.1759 0 8.03589C0 3.89589 3.36 0.535889 7.5 0.535889C11.64 0.535889 15 3.89589 15 8.03589C15.0024 9.73756 14.4235 11.389 13.3592 12.7167ZM11.6875 12.0984C12.7451 11.0108 13.3357 9.55291 13.3333 8.03589C13.3333 4.81256 10.7225 2.20256 7.5 2.20256C4.27667 2.20256 1.66667 4.81256 1.66667 8.03589C1.66667 11.2584 4.27667 13.8692 7.5 13.8692C9.01703 13.8716 10.4749 13.281 11.5625 12.2234L11.6875 12.0984Z" fill="#000"/></svg>