<svg width="28" height="28" viewBox="0 0 28 28" fill="none" xmlns="http://www.w3.org/2000/svg"><g clip-path="url(#clip0)"><path fill="#0DC143" d="M0 0H48V48H0z"/><path d="M20.2714 8.29003C18.7705 6.74499 16.6957 5.90625 14.5768 5.90625C10.0741 5.90625 6.4543 9.57021 6.49844 14.0288C6.49844 15.4414 6.89574 16.8099 7.5579 18.0459L6.41016 22.2396L10.6921 21.136C11.884 21.7981 13.2084 22.1072 14.5327 22.1072C18.9912 22.1072 22.6111 18.4432 22.6111 13.9846C22.6111 11.8216 21.7723 9.79093 20.2714 8.29003ZM14.5768 20.7387C13.3849 20.7387 12.193 20.4297 11.1777 19.8117L10.9129 19.6792L8.3525 20.3414L9.01466 17.8252L8.83808 17.5603C6.89574 14.4261 7.82277 10.2765 11.0011 8.33418C14.1795 6.39184 18.2849 7.31886 20.2273 10.4972C22.1696 13.6756 21.2426 17.781 18.0642 19.7234C17.0489 20.3855 15.8129 20.7387 14.5768 20.7387ZM18.4615 15.8387L17.9759 15.618C17.9759 15.618 17.2696 15.309 16.8282 15.0882C16.784 15.0882 16.7399 15.0441 16.6957 15.0441C16.5633 15.0441 16.475 15.0882 16.3867 15.1324C16.3867 15.1324 16.3426 15.1765 15.7246 15.8828C15.6804 15.9711 15.5921 16.0153 15.5038 16.0153H15.4597C15.4156 16.0153 15.3273 15.9711 15.2831 15.927L15.0624 15.8387C14.5768 15.618 14.1354 15.3531 13.7822 14.9999C13.6939 14.9117 13.5615 14.8234 13.4732 14.7351C13.1642 14.4261 12.8552 14.0729 12.6345 13.6756L12.5903 13.5873C12.5462 13.5432 12.5462 13.499 12.502 13.4108C12.502 13.3225 12.502 13.2342 12.5462 13.19C12.5462 13.19 12.7228 12.9693 12.8552 12.8369C12.9435 12.7486 12.9876 12.6162 13.0759 12.5279C13.1642 12.3954 13.2084 12.2189 13.1642 12.0864C13.1201 11.8657 12.5903 10.6738 12.4579 10.409C12.3696 10.2765 12.2813 10.2324 12.1489 10.1882H12.0165C11.9282 10.1882 11.7957 10.1882 11.6633 10.1882C11.575 10.1882 11.4867 10.2324 11.3984 10.2324L11.3543 10.2765C11.266 10.3207 11.1777 10.409 11.0894 10.4531C11.0011 10.5414 10.957 10.6297 10.8687 10.718C10.5597 11.1153 10.3831 11.6008 10.3831 12.0864C10.3831 12.4396 10.4714 12.7927 10.6038 13.1017L10.648 13.2342C11.0453 14.0729 11.575 14.8234 12.2813 15.4855L12.4579 15.6621C12.5903 15.7945 12.7228 15.8828 12.8111 16.0153C13.7381 16.8099 14.7975 17.3837 15.9894 17.6927C16.1219 17.7369 16.2984 17.7369 16.4309 17.781C16.5633 17.781 16.7399 17.781 16.8723 17.781C17.093 17.781 17.3579 17.6927 17.5345 17.6044C17.6669 17.5162 17.7552 17.5162 17.8435 17.4279L17.9318 17.3396C18.0201 17.2513 18.1084 17.2072 18.1966 17.1189C18.2849 17.0306 18.3732 16.9423 18.4174 16.854C18.5057 16.6774 18.5498 16.4567 18.5939 16.236C18.5939 16.1477 18.5939 16.0153 18.5939 15.927C18.5939 15.927 18.5498 15.8828 18.4615 15.8387Z" fill="#fff"/></g><defs><clipPath id="clip0"><rect width="28" height="28" rx="14" fill="#fff"/></clipPath></defs></svg>